<?xml version="1.0" encoding="utf-8"?>
<!-- Generator: Adobe Illustrator 16.0.4, SVG Export Plug-In . SVG Version: 6.00 Build 0)  -->
<!DOCTYPE svg PUBLIC "-//W3C//DTD SVG 1.1//EN" "http://www.w3.org/Graphics/SVG/1.1/DTD/svg11.dtd">
<svg version="1.1" id="Layer_1" xmlns="http://www.w3.org/2000/svg" xmlns:xlink="http://www.w3.org/1999/xlink" x="0px" y="0px"
	 width="536.752px" height="81.752px" viewBox="0 0 536.752 81.752" enable-background="new 0 0 536.752 81.752"
	 xml:space="preserve">
<g id="Layer_2">
	<path fill="#00E1B4" d="M81.912,43.622c0.01,17.855,0.021,38.27,0.021,38.27L0.045,81.937l-0.005-9.61
		C0.04,72.326,64.279,69.163,81.912,43.622z"/>
	<path fill="#00E1B4" d="M0.034,62.144L0,0l81.888-0.045l0.01,17.467C81.898,17.422,63.326,62.108,0.034,62.144z"/>
</g>
<g id="Layer_4">
	<g>
		<g>
			<path fill="#E8E8E8" d="M91.646-0.053l51.571-0.028l0.006,10.43l-40.446,0.022l0.013,23.673l40.446-0.022l0.007,11.917
				l-40.446,0.022l0.02,36.03L91.69,81.998L91.646-0.053z"/>
			<path fill="#E8E8E8" d="M147.318,27.635l10.43-0.006l0.03,54.333l-10.43,0.006L147.318,27.635z"/>
			<path fill="#E8E8E8" d="M147.303-0.083l10.43-0.006l0.005,10.437l-10.43,0.006L147.303-0.083z"/>
			<path fill="#E8E8E8" d="M221.227-0.123l10.43-0.006l0.045,82.051l-10.43,0.006L221.227-0.123z"/>
			<path fill="#E8E8E8" d="M296.183-0.164l28.624-0.016c5.795-0.003,10.875,0.651,15.24,1.962c4.365,1.312,8.152,3.066,11.36,5.267
				c3.207,2.2,5.874,4.73,8.001,7.586c2.126,2.858,3.808,5.792,5.047,8.805c1.234,3.013,2.128,6.025,2.671,9.038
				c0.541,3.013,0.813,5.794,0.813,8.344c0.005,5.255-0.961,10.334-2.889,15.241c-1.928,4.908-4.785,9.273-8.567,13.1
				c-3.785,3.826-8.478,6.9-14.074,9.221c-5.603,2.321-12.072,3.483-19.412,3.487l-26.77,0.015L296.183-0.164z M307.349,71.45
				l14.021-0.008c4.713-0.004,9.172-0.644,13.385-1.92c4.209-1.276,7.896-3.19,11.064-5.742c3.166-2.551,5.674-5.739,7.526-9.564
				c1.853-3.826,2.775-8.288,2.773-13.387c-0.002-2.626-0.428-5.697-1.279-9.213c-0.854-3.514-2.459-6.854-4.814-10.021
				c-2.359-3.167-5.624-5.85-9.799-8.05c-4.173-2.199-9.582-3.297-16.227-3.293l-16.688,0.009L307.349,71.45z"/>
			<path fill="#E8E8E8" d="M485.945,0.002l10.43-0.006l0.032,50.72l23.627-23.77l14.485-0.008l-25.596,24.93l27.828,29.885
				l-14.834,0.008l-25.512-28.494l0.016,28.508l-10.43,0.007L485.945,0.002z"/>
		</g>
	</g>
	<path fill="#E8E8E8" d="M172.532,50.634c1.506-9.18,8.289-14.772,16.404-14.776c8.072-0.004,14.825,5.503,16.395,14.606
		l0.036,0.167l-32.682,0.019L172.532,50.634z M172.562,58.521l44.024-0.023c0.195-1.32,0.298-2.668,0.297-4.041
		c-0.008-15.172-12.524-27.467-27.953-27.458l0,0c-15.426,0.008-27.929,12.317-27.92,27.489
		c0.008,15.171,12.524,27.466,27.951,27.457c11.659-0.006,21.651-7.039,25.832-17.023l-11.574,0.006
		c-2.942,5.736-8.234,9.57-14.262,9.573c-8.069,0.004-14.824-6.858-16.395-15.959V58.521L172.562,58.521z"/>
	<path fill="#E8E8E8" d="M397.327,26.954c-15.405,0.008-27.894,12.3-27.885,27.454c0.01,15.151,12.51,27.431,27.913,27.423h0.103
		c15.406-0.009,27.893-12.303,27.885-27.453c-0.008-15.154-12.508-27.432-27.914-27.424H397.327z M397.432,35.582
		c8.105-0.004,14.886,5.79,16.4,14.957l-0.154,0.017l0.154-0.017c0.105,1.593,0.197,3.187,0.152,4.78
		c-0.035,1.236-0.154,2.486-0.371,3.709c-0.771,4.293-2.785,8.304-6.01,11.271c-2.642,2.432-6.511,4.092-10.15,4.094h-0.103
		c-3.641,0.002-7.51-1.651-10.155-4.082c-3.23-2.965-5.242-6.975-6.019-11.267c-0.219-1.221-0.342-2.47-0.379-3.707
		c-0.047-1.596,0.047-3.188,0.15-4.78l0.153,0.015l-0.153-0.015c1.502-9.168,8.276-14.972,16.381-14.976H397.432z"/>
	<path fill="#E8E8E8" d="M470.681,64.636c-1.03,2.102-2.424,4.021-4.174,5.631c-2.641,2.432-6.51,4.09-10.149,4.092h-0.103
		c-3.641,0.002-7.51-1.65-10.156-4.082c-3.229-2.965-5.241-6.974-6.018-11.266c-0.219-1.221-0.342-2.471-0.379-3.707
		c-0.047-1.596,0.047-3.188,0.149-4.781l0.154,0.017l-0.154-0.017c1.502-9.167,8.277-14.97,16.382-14.975h0.102
		c6.654-0.003,12.414,3.9,15.103,10.371l11.459-0.016c-3.628-11.021-14.152-18.99-26.564-18.983h-0.102
		c-15.406,0.008-27.894,12.3-27.886,27.454c0.009,15.152,12.511,27.432,27.914,27.422h0.103
		c11.709-0.007,21.729-7.109,25.864-17.168L470.681,64.636z"/>
	<path fill="#E8E8E8" d="M280.771,81.896l10.406-0.006l-0.016-27.384l-0.03-54.667l-10.407,0.006l0.02,33.316
		c-4.773-3.771-10.84-6.028-17.439-6.024h-0.102c-15.375,0.009-27.836,12.276-27.828,27.4c0.008,15.122,12.483,27.377,27.859,27.368
		h0.101c6.601-0.004,12.664-2.268,17.435-6.045L280.771,81.896z M263.13,35.747c8.088-0.004,15.032,5.779,16.544,14.928
		l-0.153,0.016l0.153-0.016c0.104,1.59,0.201,3.18,0.154,4.771c-0.037,1.234-0.154,2.48-0.373,3.699
		c-0.769,4.285-2.774,8.289-5.996,11.25c-2.635,2.427-6.496,4.084-10.13,4.086h-0.102c-3.634,0.002-7.495-1.648-10.136-4.074
		c-3.225-2.959-5.233-6.96-6.007-11.244c-0.219-1.219-0.338-2.466-0.377-3.7c-0.048-1.592,0.046-3.182,0.15-4.771l0.155,0.015
		l-0.155-0.015c1.5-9.15,8.086-14.941,16.171-14.946L263.13,35.747z"/>
	<path fill="#E8E8E8" d="M307.349,71.45"/>
	<polyline fill="#E8E8E8" points="508.924,51.868 496.413,63.994 496.407,50.716 	"/>
</g>
</svg>
